<svg width="1080" height="1080" viewBox="0 0 1080 1080" fill="none" xmlns="http://www.w3.org/2000/svg">
  <g stroke="#1477F8" stroke-width="40" stroke-linecap="round">
    <path d="M526 236C359 251 228 390 228 560C228 682 297 795 405 853" />
    <path d="M592 818C712 794 804 688 804 560C804 390 670 252 503 252C441 252 380 271 329 308" />
    <path d="M412 383C458 341 517 318 581 318C721 318 834 431 834 571C834 655 793 733 728 779" opacity="0" />
    <path d="M421 381C463 344 517 320 577 320C707 320 813 426 813 556C813 644 765 724 690 765" opacity="0" />
    <path d="M411 382C456 343 514 320 578 320C716 320 828 432 828 570C828 657 783 734 709 777" />
    <path d="M689 478C707 514 716 553 716 594C716 737 600 853 457 853C349 853 255 786 217 691" opacity="0" />
    <path d="M372 584C393 675 475 743 572 743C686 743 778 651 778 537C778 514 774 492 767 471" opacity="0" />
    <path d="M367 568C384 658 463 724 557 724C663 724 749 638 749 532C749 510 745 489 738 469" />
  </g>
  <circle cx="540" cy="540" r="55" fill="#1477F8" />
  <circle cx="368" cy="479" r="32" fill="#1477F8" />
  <circle cx="623" cy="227" r="32" fill="#1477F8" />
  <circle cx="497" cy="813" r="32" fill="#1477F8" />
</svg>
